<?xml version="1.0" encoding="UTF-8" standalone="no"?>
<!DOCTYPE svg PUBLIC "-//W3C//DTD SVG 1.1//EN" "http://www.w3.org/Graphics/SVG/1.1/DTD/svg11.dtd">
<svg version="1.1" xmlns="http://www.w3.org/2000/svg" xmlns:xlink="http://www.w3.org/1999/xlink" preserveAspectRatio="xMidYMid meet" viewBox="0 0 2000 2000" width="2000" height="2000"><defs><path d="M635.43 81.4L635.58 81.41L635.72 81.42L635.85 81.43L635.97 81.45L637.26 81.77L638.51 82.11L639.72 82.47L640.9 82.84L642.04 83.24L643.15 83.67L644.22 84.12L645.27 84.59L646.27 85.1L647.25 85.63L648.2 86.19L649.12 86.78L650.02 87.41L650.88 88.06L651.72 88.76L652.54 89.48L653.33 90.25L654.1 91.05L654.85 91.9L655.58 92.78L656.29 93.71L656.97 94.68L657.65 95.69L658.3 96.75L658.94 97.85L659.56 99.01L660.17 100.21L660.77 101.47L661.35 102.77L661.93 104.13L662.49 105.54L663.05 107.01L663.59 108.54L664.14 110.12L664.67 111.76L665.2 113.46L665.73 115.23L666.25 117.06L666.77 118.95L667.29 120.9L670.36 132.63L675.42 132.63L675.64 132.63L675.89 132.62L676.16 132.6L676.45 132.58L676.76 132.55L677.1 132.51L677.45 132.47L677.83 132.42L678.22 132.36L678.63 132.3L679.06 132.24L679.51 132.17L679.97 132.09L680.45 132.01L680.94 131.92L681.45 131.83L681.97 131.73L682.51 131.63L683.06 131.53L683.62 131.42L684.19 131.3L684.77 131.18L685.36 131.06L685.96 130.93L686.56 130.8L687.18 130.67L687.8 130.53L688.43 130.39L689.06 130.25L689.7 130.1L690.34 129.95L690.99 129.8L691.64 129.64L692.29 129.49L692.95 129.33L693.6 129.17L694.25 129L694.91 128.84L695.56 128.67L696.21 128.5L697.63 128.13L699.07 127.76L700.54 127.4L702.03 127.03L703.54 126.67L705.08 126.31L706.65 125.95L708.24 125.59L709.86 125.23L711.51 124.87L713.19 124.51L714.89 124.15L716.63 123.8L718.4 123.44L720.2 123.08L722.03 122.72L723.9 122.36L725.8 122L727.74 121.63L729.72 121.27L731.73 120.9L733.77 120.54L735.86 120.17L737.98 119.8L740.15 119.42L742.35 119.05L744.6 118.67L746.89 118.29L749.22 117.9L751.6 117.52L754.02 117.13L756.48 116.73L758.99 116.34L761.55 115.93L764.15 115.53L766.81 115.12L769.51 114.71L772.26 114.29L775.06 113.87L777.91 113.44L779.22 113.25L780.58 113.05L781.98 112.86L783.42 112.66L784.9 112.45L786.42 112.25L787.98 112.04L789.57 111.83L791.21 111.62L792.88 111.41L794.58 111.19L796.32 110.97L798.1 110.75L799.9 110.53L801.74 110.31L803.61 110.08L805.51 109.86L807.43 109.63L809.39 109.4L811.37 109.17L813.37 108.94L815.41 108.71L817.46 108.48L819.54 108.25L821.64 108.01L823.77 107.78L825.91 107.55L828.07 107.31L830.26 107.08L832.45 106.84L834.67 106.61L836.9 106.37L839.15 106.14L841.41 105.9L843.68 105.67L845.97 105.44L848.27 105.2L850.57 104.97L852.89 104.74L855.22 104.51L855.83 104.46L856.51 104.41L857.26 104.35L858.07 104.3L858.95 104.24L859.89 104.19L860.88 104.13L861.93 104.07L863.03 104.01L864.19 103.95L865.4 103.89L866.66 103.83L867.96 103.77L869.31 103.71L870.7 103.65L872.14 103.59L873.61 103.52L875.12 103.46L876.66 103.4L878.24 103.34L879.85 103.28L881.49 103.22L883.16 103.17L884.85 103.11L886.57 103.05L888.3 103L890.06 102.94L891.84 102.89L893.63 102.84L895.44 102.78L897.26 102.74L899.09 102.69L900.92 102.64L902.77 102.6L904.62 102.56L906.47 102.52L908.32 102.48L910.17 102.44L912.02 102.41L913.86 102.38L917.05 102.33L920.15 102.29L923.18 102.25L926.13 102.22L929 102.2L931.81 102.18L934.55 102.17L937.22 102.16L939.83 102.16L942.38 102.17L944.87 102.19L947.31 102.21L949.69 102.24L952.03 102.27L954.32 102.32L956.57 102.37L958.77 102.42L960.94 102.49L963.07 102.56L965.17 102.64L967.24 102.73L969.29 102.83L971.3 102.93L973.3 103.05L975.28 103.17L977.24 103.3L979.18 103.44L981.12 103.59L983.05 103.75L984.97 103.91L986.89 104.09L988.81 104.27L990.73 104.47L992.66 104.67L994.59 104.89L996.54 105.11L998.5 105.35L1000.48 105.59L1002.47 105.84L1004.49 106.11L1010.36 106.91L1016.17 107.76L1021.92 108.66L1027.62 109.6L1033.26 110.6L1038.84 111.64L1044.37 112.72L1049.84 113.86L1055.26 115.04L1060.62 116.27L1065.92 117.55L1071.17 118.88L1076.37 120.25L1081.51 121.67L1086.6 123.15L1091.63 124.67L1096.61 126.23L1101.54 127.85L1106.41 129.52L1111.23 131.23L1116 133L1120.72 134.81L1125.39 136.67L1130 138.58L1134.56 140.54L1139.08 142.55L1143.54 144.61L1147.95 146.72L1152.31 148.88L1156.63 151.09L1160.89 153.35L1165.1 155.66L1169.27 158.02L1173.38 160.43L1177.45 162.89L1181.47 165.4L1185.45 167.96L1189.37 170.57L1193.25 173.23L1197.08 175.95L1199.18 177.47L1201.28 179.03L1203.38 180.62L1205.47 182.24L1207.56 183.89L1209.65 185.57L1211.73 187.28L1213.81 189.01L1215.88 190.77L1217.94 192.55L1219.99 194.36L1222.03 196.19L1224.06 198.04L1226.08 199.91L1228.09 201.8L1230.08 203.71L1232.05 205.64L1234.01 207.58L1235.96 209.54L1237.88 211.52L1239.79 213.51L1241.68 215.51L1243.55 217.52L1245.39 219.54L1247.21 221.58L1249.01 223.62L1250.79 225.67L1252.54 227.73L1254.26 229.79L1255.95 231.86L1257.62 233.93L1259.26 236L1260.87 238.08L1262.44 240.16L1263.99 242.23L1265.5 244.31L1266.97 246.38L1268.41 248.46L1269.82 250.52L1271.19 252.58L1272.75 254.98L1274.3 257.42L1275.83 259.9L1277.35 262.41L1278.85 264.96L1280.33 267.54L1281.79 270.16L1283.24 272.8L1284.66 275.47L1286.07 278.16L1287.46 280.88L1288.82 283.62L1290.16 286.39L1291.48 289.17L1292.78 291.97L1294.05 294.78L1295.3 297.61L1296.53 300.45L1297.72 303.3L1298.89 306.16L1300.04 309.03L1301.15 311.9L1302.24 314.78L1303.3 317.66L1304.32 320.53L1305.32 323.41L1306.29 326.28L1307.22 329.15L1308.12 332.01L1308.99 334.86L1309.83 337.71L1310.63 340.54L1311.39 343.35L1312.12 346.15L1312.81 348.94L1313.47 351.7L1314.08 354.45L1314.66 357.17L1315.2 359.87L1315.7 362.54L1315.74 362.76L1315.78 362.99L1315.83 363.21L1315.87 363.44L1315.91 363.67L1315.95 363.9L1315.99 364.13L1316.03 364.36L1316.08 364.59L1316.12 364.82L1316.16 365.05L1316.2 365.28L1316.25 365.52L1316.29 365.75L1316.33 365.97L1316.37 366.2L1316.41 366.43L1316.46 366.65L1316.5 366.87L1316.54 367.09L1316.62 367.52L1316.69 367.93L1316.77 368.34L1316.8 368.53L1316.84 368.72L1316.87 368.9L1316.9 369.08L1316.93 369.26L1316.97 369.43L1317 369.59L1317.02 369.74L1317.05 369.89L1317.08 370.04L1317.1 370.17L1317.13 370.3L1317.15 370.42L1317.17 370.54L1317.89 374.59L1318.56 378.69L1319.18 382.84L1319.77 387.04L1320.3 391.29L1320.79 395.58L1321.24 399.92L1321.64 404.29L1322 408.69L1322.31 413.12L1322.58 417.59L1322.8 422.07L1322.98 426.58L1323.11 431.11L1323.2 435.66L1323.25 440.22L1323.25 444.78L1323.21 449.36L1323.13 453.94L1323 458.52L1322.83 463.1L1322.61 467.67L1322.36 472.24L1322.05 476.8L1321.71 481.34L1321.32 485.87L1320.89 490.37L1320.42 494.86L1319.9 499.31L1319.34 503.74L1318.74 508.14L1318.1 512.5L1317.41 516.83L1316.69 521.11L1315.92 525.35L1315.1 529.55L1314.25 533.69L1313.35 537.79L1312.42 541.82L1311.44 545.8L1311.31 546.32L1311.18 546.84L1311.05 547.36L1310.92 547.87L1310.79 548.39L1310.66 548.89L1310.54 549.4L1310.41 549.9L1310.29 550.4L1310.16 550.89L1310.04 551.38L1309.92 551.86L1309.8 552.34L1309.68 552.8L1309.57 553.26L1309.45 553.71L1309.34 554.16L1309.23 554.59L1309.13 555.02L1309.02 555.43L1308.92 555.84L1308.82 556.23L1308.73 556.61L1308.64 556.98L1308.55 557.34L1308.46 557.68L1308.38 558.02L1308.3 558.33L1308.23 558.64L1308.16 558.92L1308.09 559.2L1308.03 559.45L1307.97 559.69L1307.92 559.91L1307.87 560.12L1307.83 560.31L1307.79 560.47L1307.76 560.62L1307.73 560.75L1307.71 560.86L1307.57 561.45L1307.39 562.13L1307.18 562.89L1306.94 563.73L1306.66 564.66L1306.36 565.65L1306.02 566.72L1305.66 567.85L1305.27 569.04L1304.86 570.29L1304.42 571.59L1303.96 572.94L1303.49 574.34L1302.99 575.78L1302.48 577.25L1301.95 578.75L1301.41 580.28L1300.85 581.84L1300.28 583.41L1299.71 585L1299.13 586.61L1298.54 588.22L1297.94 589.83L1297.34 591.44L1296.74 593.04L1296.14 594.64L1295.54 596.22L1294.94 597.78L1294.35 599.33L1293.76 600.84L1293.18 602.33L1292.61 603.78L1292.05 605.19L1291.49 606.56L1290.96 607.88L1290.43 609.15L1289.93 610.37L1289.44 611.53L1288.96 612.62L1288.51 613.64L1287.43 616.06L1286.32 618.48L1285.17 620.92L1284 623.37L1282.8 625.83L1281.57 628.29L1280.31 630.77L1279.03 633.25L1277.71 635.74L1276.37 638.24L1275.01 640.75L1273.61 643.26L1272.19 645.77L1270.75 648.29L1269.28 650.82L1267.78 653.35L1266.26 655.88L1264.72 658.42L1263.15 660.95L1261.56 663.49L1259.94 666.03L1258.3 668.57L1256.64 671.11L1254.96 673.65L1253.25 676.19L1251.52 678.72L1249.77 681.26L1248 683.79L1246.21 686.32L1244.39 688.84L1242.56 691.36L1240.71 693.87L1238.83 696.38L1236.94 698.88L1235.03 701.38L1233.1 703.87L1231.15 706.35L1229.19 708.82L1227.21 711.28L1225.21 713.74L1223.21 716.14L1221.09 718.64L1218.84 721.23L1216.47 723.9L1213.99 726.65L1211.4 729.47L1208.71 732.37L1205.92 735.32L1203.04 738.33L1200.07 741.4L1197.02 744.52L1193.89 747.69L1190.68 750.89L1187.41 754.13L1184.08 757.4L1180.69 760.69L1177.25 764.01L1173.76 767.34L1170.23 770.68L1166.66 774.03L1163.06 777.38L1159.44 780.73L1155.79 784.07L1152.13 787.4L1148.46 790.71L1144.78 794L1141.1 797.26L1137.42 800.49L1133.76 803.68L1130.1 806.83L1126.47 809.94L1122.87 812.99L1119.29 815.99L1115.75 818.93L1112.25 821.8L1108.79 824.61L1105.39 827.33L1102.04 829.98L1098.75 832.55L1095.52 835.02L1095.31 835.18L1095.05 835.39L1094.74 835.63L1094.37 835.91L1093.95 836.23L1093.48 836.59L1092.96 836.99L1092.4 837.42L1091.79 837.89L1091.13 838.39L1090.43 838.92L1089.69 839.48L1088.91 840.08L1088.09 840.71L1087.23 841.36L1086.33 842.04L1085.4 842.75L1084.43 843.49L1083.43 844.25L1082.39 845.04L1081.33 845.84L1080.23 846.68L1079.11 847.53L1077.96 848.4L1076.79 849.29L1075.58 850.2L1074.36 851.13L1073.11 852.08L1071.84 853.04L1070.56 854.01L1069.25 855L1067.93 856L1066.59 857.01L1065.23 858.03L1063.87 859.07L1062.49 860.11L1061.1 861.16L1059.7 862.22L1058.29 863.28L1056.87 864.35L1055.4 865.46L1053.94 866.57L1052.5 867.67L1051.07 868.77L1049.66 869.85L1048.27 870.93L1046.9 871.99L1045.55 873.04L1044.22 874.08L1042.91 875.11L1041.63 876.12L1040.37 877.11L1039.13 878.1L1037.92 879.06L1036.74 880.01L1035.58 880.94L1034.46 881.85L1033.36 882.74L1032.3 883.61L1031.26 884.45L1030.26 885.28L1029.3 886.08L1028.36 886.86L1027.47 887.62L1026.61 888.35L1025.79 889.05L1025 889.72L1024.26 890.37L1023.55 890.99L1022.89 891.58L1022.27 892.14L1021.69 892.66L1021.16 893.16L1020.67 893.62L1020.23 894.05L1019.84 894.45L1019.49 894.81L1019.2 895.13L1018.95 895.42L1018.75 895.67L1018.24 896.4L1017.77 897.12L1017.34 897.85L1016.95 898.59L1016.6 899.33L1016.29 900.08L1016.02 900.84L1015.8 901.61L1015.62 902.4L1015.49 903.21L1015.4 904.04L1015.36 904.89L1015.37 905.77L1015.43 906.68L1015.54 907.62L1015.69 908.59L1015.9 909.59L1016.16 910.64L1016.47 911.72L1016.84 912.84L1017.26 914.01L1017.73 915.23L1018.26 916.5L1018.85 917.81L1019.49 919.19L1020.2 920.62L1020.96 922.1L1021.78 923.65L1022.66 925.27L1023.61 926.95L1024.61 928.7L1025.68 930.52L1026.82 932.41L1028.02 934.38L1029.28 936.42L1030.61 938.55L1032.01 940.76L1033.47 943.06L1035.01 945.44L1036.61 947.91L1037.18 948.8L1037.76 949.7L1038.36 950.64L1038.97 951.59L1039.6 952.57L1040.24 953.57L1040.88 954.58L1041.54 955.62L1042.21 956.67L1042.89 957.73L1043.57 958.81L1044.27 959.9L1044.96 961L1045.67 962.1L1046.37 963.22L1047.08 964.34L1047.8 965.47L1048.51 966.6L1049.23 967.74L1049.94 968.87L1050.65 970.01L1051.37 971.14L1052.08 972.27L1052.78 973.39L1053.48 974.51L1054.18 975.62L1054.87 976.72L1055.55 977.81L1056.23 978.89L1056.89 979.96L1057.55 981.02L1058.19 982.05L1058.83 983.07L1059.45 984.08L1060.06 985.06L1060.65 986.02L1061.23 986.96L1061.79 987.88L1062.34 988.77L1062.87 989.63L1064.38 992.08L1065.92 994.59L1067.49 997.15L1069.09 999.76L1070.71 1002.4L1072.35 1005.09L1074.01 1007.8L1075.68 1010.53L1077.37 1013.29L1079.05 1016.05L1080.74 1018.82L1082.43 1021.59L1084.12 1024.36L1085.79 1027.11L1087.46 1029.84L1089.11 1032.56L1090.74 1035.24L1092.35 1037.89L1093.93 1040.5L1095.49 1043.06L1097.01 1045.57L1098.5 1048.02L1099.95 1050.41L1101.35 1052.73L1102.71 1054.97L1104.01 1057.13L1105.27 1059.2L1106.47 1061.18L1107.6 1063.07L1108.68 1064.84L1109.68 1066.51L1110.62 1068.06L1111.48 1069.49L1112.26 1070.79L1112.96 1071.96L1113.57 1072.99L1114.1 1073.87L1114.53 1074.61L1114.87 1075.18L1115.11 1075.6L1115.28 1075.88L1115.45 1076.19L1115.64 1076.51L1115.84 1076.85L1116.06 1077.22L1116.29 1077.62L1116.55 1078.05L1116.82 1078.52L1117.12 1079.02L1117.45 1079.57L1117.81 1080.16L1118.19 1080.8L1118.61 1081.49L1119.06 1082.24L1119.55 1083.05L1120.08 1083.92L1120.65 1084.85L1121.26 1085.85L1121.91 1086.93L1122.61 1088.07L1123.36 1089.3L1124.16 1090.61L1125.01 1092L1125.92 1093.48L1126.88 1095.06L1127.91 1096.72L1128.99 1098.49L1130.13 1100.35L1131.34 1102.33L1132.62 1104.4L1133.97 1106.59L1135.38 1108.9L1136.87 1111.32L1138.43 1113.86L1140.08 1116.53L1141.79 1119.32L1143.6 1122.25L1145.48 1125.31L1147.45 1128.5L1149.5 1131.84L1153.08 1137.64L1156.67 1143.41L1160.25 1149.15L1163.84 1154.87L1167.42 1160.56L1171 1166.21L1174.57 1171.82L1178.14 1177.4L1181.7 1182.94L1185.25 1188.44L1188.79 1193.89L1192.32 1199.29L1195.84 1204.64L1199.33 1209.94L1202.81 1215.19L1206.28 1220.38L1209.72 1225.51L1213.14 1230.58L1216.54 1235.59L1219.91 1240.53L1223.25 1245.41L1226.57 1250.21L1229.86 1254.94L1233.11 1259.6L1236.34 1264.17L1239.53 1268.67L1242.68 1273.09L1245.8 1277.42L1248.87 1281.67L1251.91 1285.83L1254.91 1289.9L1257.86 1293.87L1260.76 1297.75L1263.62 1301.53L1266.44 1305.21L1269.2 1308.79L1271.91 1312.26L1274.57 1315.63L1277.17 1318.89L1279.72 1322.03L1280.16 1322.57L1280.6 1323.12L1281.04 1323.66L1281.48 1324.21L1281.93 1324.75L1282.37 1325.3L1282.81 1325.84L1283.25 1326.38L1283.68 1326.92L1284.12 1327.46L1284.55 1327.99L1284.97 1328.52L1285.4 1329.05L1285.82 1329.57L1286.23 1330.08L1286.64 1330.59L1287.04 1331.09L1287.44 1331.58L1287.83 1332.07L1288.21 1332.55L1288.59 1333.01L1288.96 1333.47L1289.32 1333.92L1289.67 1334.35L1290.01 1334.78L1290.34 1335.19L1290.66 1335.59L1290.97 1335.98L1291.27 1336.35L1291.56 1336.71L1291.84 1337.05L1292.1 1337.38L1292.35 1337.69L1292.59 1337.98L1292.82 1338.26L1293.02 1338.52L1293.22 1338.76L1293.4 1338.98L1293.56 1339.18L1293.71 1339.36L1295.02 1341L1296.61 1342.9L1298.45 1345.06L1300.53 1347.45L1302.84 1350.06L1305.37 1352.87L1308.09 1355.87L1310.99 1359.05L1314.06 1362.38L1317.28 1365.85L1320.64 1369.45L1324.12 1373.16L1327.71 1376.97L1331.38 1380.85L1335.14 1384.8L1338.95 1388.8L1342.81 1392.82L1346.71 1396.87L1350.61 1400.92L1354.52 1404.95L1358.41 1408.95L1362.28 1412.91L1366.1 1416.81L1369.86 1420.63L1373.54 1424.36L1377.14 1427.98L1380.63 1431.48L1384 1434.84L1387.23 1438.04L1390.31 1441.08L1393.23 1443.93L1395.97 1446.57L1398.51 1449L1400.84 1451.2L1402.94 1453.15L1404.8 1454.84L1406.41 1456.25L1407.74 1457.36L1408.79 1458.17L1409.53 1458.65L1409.73 1458.75L1409.92 1458.86L1410.09 1458.95L1410.26 1459.04L1410.42 1459.13L1410.58 1459.2L1410.72 1459.28L1410.86 1459.34L1410.98 1459.4L1411.11 1459.46L1411.22 1459.51L1411.32 1459.55L1411.42 1459.58L1411.51 1459.61L1411.6 1459.64L1411.67 1459.65L1411.74 1459.66L1411.81 1459.66L1411.86 1459.66L1411.92 1459.65L1411.96 1459.63L1412 1459.6L1412.03 1459.57L1412.06 1459.53L1412.08 1459.48L1412.09 1459.43L1412.1 1459.37L1412.11 1459.3L1412.11 1459.22L1412.1 1459.13L1412.09 1459.04L1412.08 1458.94L1412.06 1458.83L1412.03 1458.72L1412 1458.59L1411.97 1458.46L1411.93 1458.32L1411.89 1458.17L1411.85 1458.01L1411.8 1457.85L1411.77 1457.73L1411.73 1457.59L1411.69 1457.43L1411.65 1457.24L1411.61 1457.02L1411.56 1456.78L1411.51 1456.52L1411.46 1456.24L1411.4 1455.93L1411.34 1455.6L1411.28 1455.25L1411.22 1454.88L1411.15 1454.49L1411.08 1454.08L1411.01 1453.66L1410.94 1453.21L1410.87 1452.75L1410.79 1452.27L1410.71 1451.78L1410.63 1451.27L1410.55 1450.74L1410.47 1450.2L1410.39 1449.65L1410.3 1449.09L1410.22 1448.51L1410.13 1447.92L1410.04 1447.32L1409.95 1446.71L1409.86 1446.09L1409.77 1445.46L1409.68 1444.82L1409.59 1444.17L1409.5 1443.52L1409.41 1442.86L1409.32 1442.19L1409.23 1441.52L1409.14 1440.84L1409.05 1440.16L1408.96 1439.48L1408.87 1438.79L1408.68 1437.29L1408.51 1435.76L1408.35 1434.17L1408.2 1432.55L1408.06 1430.89L1407.93 1429.19L1407.82 1427.45L1407.71 1425.68L1407.62 1423.88L1407.54 1422.05L1407.47 1420.2L1407.41 1418.32L1407.36 1416.41L1407.33 1414.48L1407.3 1412.54L1407.29 1410.57L1407.29 1408.59L1407.3 1406.6L1407.32 1404.6L1407.35 1402.58L1407.39 1400.56L1407.45 1398.54L1407.51 1396.51L1407.59 1394.48L1407.68 1392.45L1407.78 1390.43L1407.89 1388.41L1408.01 1386.39L1408.14 1384.39L1408.29 1382.39L1408.44 1380.41L1408.61 1378.44L1408.78 1376.49L1408.97 1374.56L1409.17 1372.65L1409.38 1370.76L1409.6 1368.9L1409.84 1367.07L1410.08 1365.26L1410.33 1363.48L1411.47 1356.22L1412.78 1349.09L1414.24 1342.09L1415.85 1335.24L1417.62 1328.52L1419.53 1321.95L1421.59 1315.54L1423.79 1309.27L1426.13 1303.17L1428.59 1297.23L1431.19 1291.45L1433.92 1285.84L1436.77 1280.41L1439.74 1275.15L1442.82 1270.08L1446.02 1265.19L1449.32 1260.49L1452.74 1255.98L1456.25 1251.67L1459.86 1247.56L1463.57 1243.66L1467.37 1239.96L1471.26 1236.47L1475.23 1233.2L1479.29 1230.16L1483.42 1227.33L1487.62 1224.73L1491.9 1222.36L1496.25 1220.23L1500.65 1218.34L1505.12 1216.69L1509.65 1215.29L1514.23 1214.14L1518.85 1213.24L1523.53 1212.6L1528.25 1212.22L1533.01 1212.11L1537.8 1212.27L1542.62 1212.7L1547.48 1213.41L1551.28 1214.16L1555.06 1215.08L1558.81 1216.16L1562.52 1217.39L1566.21 1218.79L1569.85 1220.34L1573.47 1222.05L1577.04 1223.91L1580.57 1225.91L1584.06 1228.07L1587.51 1230.37L1590.92 1232.81L1594.28 1235.4L1597.59 1238.13L1600.85 1240.99L1604.06 1243.99L1607.22 1247.12L1610.32 1250.39L1613.36 1253.79L1616.35 1257.31L1619.28 1260.96L1622.15 1264.73L1624.95 1268.62L1627.69 1272.64L1630.37 1276.77L1632.98 1281.02L1635.51 1285.38L1637.98 1289.85L1640.37 1294.43L1642.69 1299.12L1644.94 1303.91L1647.1 1308.81L1649.19 1313.81L1651.19 1318.91L1653.12 1324.11L1654.95 1329.4L1656.71 1334.79L1658.37 1340.27L1659.95 1345.83L1661.43 1351.49L1661.98 1353.74L1662.5 1356.05L1663.01 1358.41L1663.5 1360.83L1663.97 1363.29L1664.43 1365.8L1664.87 1368.35L1665.28 1370.94L1665.69 1373.56L1666.07 1376.21L1666.43 1378.89L1666.78 1381.59L1667.1 1384.3L1667.41 1387.04L1667.69 1389.78L1667.96 1392.53L1668.2 1395.28L1668.43 1398.04L1668.63 1400.79L1668.82 1403.53L1668.98 1406.27L1669.12 1408.99L1669.24 1411.69L1669.33 1414.36L1669.41 1417.01L1669.46 1419.64L1669.49 1422.23L1669.49 1424.78L1669.48 1427.29L1669.44 1429.76L1669.37 1432.18L1669.29 1434.54L1669.17 1436.86L1669.04 1439.11L1668.88 1441.3L1668.69 1443.43L1668.48 1445.48L1668.25 1447.46L1667.99 1449.36L1667.7 1451.18L1667.35 1453.17L1666.98 1455.15L1666.6 1457.13L1666.19 1459.1L1665.77 1461.07L1665.33 1463.03L1664.88 1464.98L1664.41 1466.92L1663.92 1468.85L1663.41 1470.78L1662.89 1472.69L1662.35 1474.6L1661.8 1476.49L1661.23 1478.38L1660.64 1480.25L1660.04 1482.11L1659.42 1483.95L1658.79 1485.78L1658.15 1487.6L1657.49 1489.4L1656.81 1491.19L1656.12 1492.96L1655.42 1494.71L1654.71 1496.45L1653.98 1498.17L1653.23 1499.87L1652.48 1501.55L1651.71 1503.21L1650.93 1504.85L1650.14 1506.47L1649.33 1508.07L1648.51 1509.65L1647.69 1511.21L1646.85 1512.74L1645.99 1514.25L1645.13 1515.73L1644.26 1517.19L1643.37 1518.63L1642.48 1520.04L1641.58 1521.42L1641.31 1521.83L1641.04 1522.24L1640.78 1522.64L1640.52 1523.03L1640.27 1523.43L1640.02 1523.81L1639.77 1524.2L1639.53 1524.58L1639.29 1524.95L1639.06 1525.31L1638.84 1525.67L1638.61 1526.03L1638.4 1526.37L1638.19 1526.71L1637.98 1527.04L1637.79 1527.37L1637.59 1527.68L1637.41 1527.99L1637.23 1528.28L1637.06 1528.57L1636.9 1528.85L1636.74 1529.11L1636.59 1529.37L1636.45 1529.62L1636.32 1529.85L1636.19 1530.08L1636.08 1530.29L1635.97 1530.49L1635.87 1530.67L1635.78 1530.85L1635.7 1531.01L1635.63 1531.16L1635.57 1531.29L1635.52 1531.41L1635.48 1531.52L1635.45 1531.61L1635.44 1531.69L1635.43 1531.75L1635.43 1531.79L1635.44 1531.82L1635.47 1531.83L1635.52 1531.83L1635.59 1531.83L1635.67 1531.83L1635.77 1531.83L1635.89 1531.83L1636.03 1531.82L1636.18 1531.81L1636.35 1531.79L1636.53 1531.77L1636.73 1531.75L1636.94 1531.73L1637.17 1531.71L1637.41 1531.68L1637.67 1531.65L1637.94 1531.62L1638.22 1531.59L1638.52 1531.55L1638.82 1531.51L1639.14 1531.47L1639.47 1531.42L1639.82 1531.38L1640.17 1531.33L1640.53 1531.28L1640.9 1531.23L1641.29 1531.17L1641.68 1531.12L1642.08 1531.06L1642.49 1531L1642.9 1530.94L1643.33 1530.87L1643.76 1530.81L1644.2 1530.74L1644.65 1530.67L1645.1 1530.6L1645.56 1530.53L1646.02 1530.45L1646.49 1530.38L1646.96 1530.3L1647.44 1530.22L1648.28 1530.07L1649.14 1529.91L1650.04 1529.73L1650.96 1529.54L1651.91 1529.33L1652.88 1529.11L1653.87 1528.88L1654.89 1528.63L1655.92 1528.37L1656.97 1528.11L1658.04 1527.83L1659.12 1527.54L1660.22 1527.24L1661.32 1526.93L1662.44 1526.62L1663.57 1526.29L1664.7 1525.96L1665.83 1525.62L1666.97 1525.27L1668.12 1524.92L1669.26 1524.56L1670.4 1524.2L1671.54 1523.83L1672.67 1523.46L1673.8 1523.09L1674.92 1522.71L1676.03 1522.33L1677.12 1521.95L1678.21 1521.57L1679.28 1521.18L1680.34 1520.8L1681.38 1520.42L1682.4 1520.03L1683.4 1519.65L1684.38 1519.27L1685.34 1518.9L1686.27 1518.52L1687.17 1518.15L1688.05 1517.79L1688.89 1517.42L1690.39 1516.77L1691.88 1516.17L1693.34 1515.6L1694.8 1515.07L1696.23 1514.59L1697.64 1514.14L1699.04 1513.74L1700.41 1513.37L1701.77 1513.05L1703.1 1512.76L1704.42 1512.52L1705.71 1512.32L1706.98 1512.16L1708.23 1512.03L1709.46 1511.95L1710.66 1511.91L1711.84 1511.91L1713 1511.95L1714.13 1512.02L1715.23 1512.14L1716.31 1512.3L1717.36 1512.5L1718.39 1512.73L1719.39 1513.01L1720.36 1513.32L1721.3 1513.68L1722.22 1514.07L1723.1 1514.51L1723.96 1514.98L1724.78 1515.49L1725.58 1516.04L1726.34 1516.63L1727.07 1517.26L1727.77 1517.93L1728.44 1518.64L1729.08 1519.38L1729.68 1520.17L1730.24 1520.99L1730.78 1521.85L1731.27 1522.75L1731.59 1523.41L1731.87 1524.1L1732.13 1524.83L1732.35 1525.6L1732.54 1526.4L1732.71 1527.24L1732.84 1528.11L1732.95 1529.01L1733.03 1529.95L1733.08 1530.91L1733.1 1531.89L1733.09 1532.91L1733.06 1533.94L1733 1535L1732.92 1536.07L1732.81 1537.17L1732.67 1538.28L1732.51 1539.41L1732.32 1540.55L1732.11 1541.7L1731.87 1542.86L1731.61 1544.03L1731.32 1545.21L1731.01 1546.39L1730.68 1547.58L1730.33 1548.77L1729.95 1549.96L1729.55 1551.14L1729.13 1552.33L1728.69 1553.51L1728.22 1554.69L1727.74 1555.86L1727.23 1557.01L1726.71 1558.16L1726.16 1559.3L1725.6 1560.42L1725.01 1561.53L1724.41 1562.62L1723.78 1563.69L1723.14 1564.74L1722.79 1565.3L1722.42 1565.88L1722.03 1566.46L1721.64 1567.06L1721.23 1567.66L1720.81 1568.27L1720.39 1568.88L1719.95 1569.5L1719.5 1570.13L1719.05 1570.76L1718.58 1571.39L1718.11 1572.03L1717.63 1572.67L1717.15 1573.3L1716.66 1573.94L1716.16 1574.58L1715.67 1575.22L1715.16 1575.85L1714.66 1576.49L1714.15 1577.12L1713.64 1577.74L1713.12 1578.36L1712.61 1578.98L1712.1 1579.58L1711.59 1580.18L1711.07 1580.78L1710.56 1581.36L1710.06 1581.93L1709.55 1582.5L1709.05 1583.05L1708.55 1583.59L1708.06 1584.12L1707.57 1584.63L1707.09 1585.13L1706.61 1585.62L1706.14 1586.09L1705.68 1586.54L1705.23 1586.98L1704.79 1587.4L1704.35 1587.8L1703.57 1588.5L1702.74 1589.23L1701.88 1589.96L1700.97 1590.72L1700.01 1591.48L1699.02 1592.26L1697.99 1593.05L1696.92 1593.86L1695.82 1594.67L1694.67 1595.5L1693.49 1596.34L1692.28 1597.18L1691.03 1598.04L1689.75 1598.9L1688.44 1599.77L1687.09 1600.65L1685.71 1601.54L1684.31 1602.44L1682.87 1603.33L1681.41 1604.24L1679.92 1605.15L1678.4 1606.06L1676.86 1606.98L1675.29 1607.9L1673.7 1608.82L1672.09 1609.75L1670.45 1610.67L1668.8 1611.6L1667.12 1612.53L1665.42 1613.45L1663.71 1614.38L1661.97 1615.31L1660.22 1616.23L1658.46 1617.15L1656.68 1618.06L1654.88 1618.98L1653.07 1619.89L1651.25 1620.79L1649.42 1621.69L1647.57 1622.58L1645.85 1623.42L1644.2 1624.23L1642.62 1625L1641.11 1625.73L1639.66 1626.44L1638.26 1627.11L1636.92 1627.75L1635.64 1628.37L1634.4 1628.96L1633.21 1629.52L1632.06 1630.06L1630.95 1630.58L1629.87 1631.07L1628.82 1631.55L1627.8 1632.01L1626.81 1632.46L1625.84 1632.88L1624.89 1633.3L1623.95 1633.7L1623.02 1634.09L1622.09 1634.48L1621.18 1634.85L1620.26 1635.22L1619.34 1635.59L1618.42 1635.95L1617.48 1636.3L1616.53 1636.66L1615.57 1637.02L1614.58 1637.38L1613.57 1637.75L1612.54 1638.11L1611.47 1638.49L1610.38 1638.87L1609.24 1639.27L1608.06 1639.67L1606.84 1640.09L1605.58 1640.52L1604.26 1640.97L1602.89 1641.43L1601.46 1641.91L1595.49 1643.88L1589.55 1645.76L1583.64 1647.55L1577.77 1649.24L1571.92 1650.85L1566.11 1652.36L1560.33 1653.78L1554.58 1655.1L1548.86 1656.33L1543.17 1657.47L1537.51 1658.52L1531.88 1659.47L1526.29 1660.34L1520.72 1661.1L1515.18 1661.78L1509.67 1662.36L1504.19 1662.85L1498.74 1663.25L1493.31 1663.55L1487.92 1663.77L1482.55 1663.88L1477.21 1663.91L1471.9 1663.84L1466.62 1663.68L1461.37 1663.43L1456.14 1663.08L1450.94 1662.64L1445.76 1662.11L1440.61 1661.48L1435.49 1660.76L1430.4 1659.95L1425.33 1659.04L1420.28 1658.05L1415.26 1656.95L1410.27 1655.77L1405.3 1654.49L1400.36 1653.12L1395.44 1651.65L1390.55 1650.09L1385.68 1648.44L1381.23 1646.85L1376.82 1645.22L1372.43 1643.53L1368.07 1641.79L1363.74 1639.99L1359.43 1638.14L1355.14 1636.23L1350.87 1634.27L1346.63 1632.25L1342.4 1630.17L1338.19 1628.03L1333.99 1625.83L1329.81 1623.57L1325.65 1621.25L1321.49 1618.86L1317.35 1616.41L1313.22 1613.9L1309.09 1611.32L1304.97 1608.67L1300.86 1605.96L1296.75 1603.17L1292.64 1600.32L1288.54 1597.4L1284.44 1594.4L1280.33 1591.34L1276.22 1588.2L1272.11 1584.98L1268 1581.7L1263.87 1578.33L1259.74 1574.89L1255.61 1571.38L1251.46 1567.78L1247.3 1564.1L1243.12 1560.35L1238.94 1556.51L1234.73 1552.59L1230.51 1548.59L1226.28 1544.51L1222.02 1540.34L1217.74 1536.08L1215.66 1533.99L1213.59 1531.91L1211.54 1529.82L1209.51 1527.73L1207.49 1525.64L1205.48 1523.54L1203.48 1521.44L1201.49 1519.34L1199.51 1517.23L1197.55 1515.12L1195.59 1512.99L1193.64 1510.86L1191.69 1508.72L1189.75 1506.57L1187.82 1504.41L1185.9 1502.23L1183.97 1500.05L1182.06 1497.85L1180.14 1495.63L1178.22 1493.4L1176.31 1491.15L1174.4 1488.89L1172.48 1486.6L1170.57 1484.3L1168.65 1481.98L1166.73 1479.64L1164.8 1477.27L1162.88 1474.88L1160.94 1472.47L1159 1470.03L1157.06 1467.57L1155.1 1465.08L1153.14 1462.57L1151.17 1460.02L1149.19 1457.45L1147.19 1454.85L1145.19 1452.21L1143.18 1449.55L1141.15 1446.85L1139.11 1444.12L1138.75 1443.65L1138.39 1443.16L1138.03 1442.68L1137.66 1442.18L1137.29 1441.68L1136.91 1441.18L1136.54 1440.67L1136.15 1440.16L1135.77 1439.64L1135.38 1439.12L1134.99 1438.6L1134.6 1438.08L1134.22 1437.56L1133.83 1437.04L1133.44 1436.52L1133.05 1436L1132.66 1435.48L1132.27 1434.96L1131.89 1434.45L1131.51 1433.94L1131.13 1433.43L1130.76 1432.93L1130.38 1432.44L1130.02 1431.95L1129.66 1431.47L1129.3 1430.99L1128.95 1430.53L1128.6 1430.07L1128.27 1429.62L1127.93 1429.18L1127.61 1428.75L1127.3 1428.33L1126.99 1427.93L1126.69 1427.53L1126.4 1427.15L1126.12 1426.78L1125.85 1426.43L1125.59 1426.09L1125.35 1425.77L1125.11 1425.46L1124.02 1424.02L1122.87 1422.48L1121.65 1420.85L1120.38 1419.13L1119.05 1417.31L1117.66 1415.4L1116.21 1413.41L1114.72 1411.33L1113.17 1409.17L1111.57 1406.94L1109.92 1404.62L1108.23 1402.23L1106.49 1399.76L1104.7 1397.22L1102.88 1394.62L1101.01 1391.94L1099.1 1389.21L1097.16 1386.41L1095.17 1383.55L1093.16 1380.63L1091.11 1377.65L1089.02 1374.63L1086.91 1371.55L1084.77 1368.42L1082.6 1365.24L1080.4 1362.03L1078.18 1358.76L1075.94 1355.46L1073.68 1352.12L1071.39 1348.75L1069.09 1345.34L1066.77 1341.9L1064.44 1338.43L1062.09 1334.93L1059.73 1331.41L1057.36 1327.86L1054.98 1324.3L1052.6 1320.71L1050.21 1317.12L1047.81 1313.5L1045.8 1310.47L1043.88 1307.56L1042.03 1304.76L1040.25 1302.07L1038.55 1299.49L1036.9 1297L1035.32 1294.6L1033.79 1292.28L1032.32 1290.04L1030.89 1287.87L1029.5 1285.76L1028.15 1283.71L1026.84 1281.7L1025.55 1279.74L1024.29 1277.81L1023.05 1275.91L1021.82 1274.03L1020.61 1272.17L1019.4 1270.32L1018.2 1268.47L1017 1266.62L1015.79 1264.75L1014.57 1262.86L1013.34 1260.95L1012.09 1259.01L1010.81 1257.03L1009.51 1255.01L1008.17 1252.93L1006.8 1250.8L1005.39 1248.6L1003.94 1246.33L1002.43 1243.98L1000.87 1241.54L999.26 1239.01L997.58 1236.39L995.83 1233.65L994.02 1230.81L992.13 1227.85L990.15 1224.76L988.1 1221.54L987.28 1220.25L986.46 1218.97L985.65 1217.69L984.85 1216.42L984.05 1215.16L983.25 1213.91L982.46 1212.67L981.68 1211.44L980.91 1210.22L980.15 1209.02L979.4 1207.83L978.65 1206.66L977.92 1205.51L977.2 1204.38L976.5 1203.26L975.81 1202.17L975.13 1201.11L974.46 1200.06L973.82 1199.04L973.19 1198.05L972.57 1197.08L971.98 1196.15L971.4 1195.24L970.84 1194.36L970.31 1193.52L969.79 1192.71L969.3 1191.93L968.82 1191.19L968.37 1190.49L967.95 1189.83L967.55 1189.2L967.17 1188.62L966.82 1188.08L966.5 1187.58L966.21 1187.12L965.94 1186.71L965.7 1186.35L965.5 1186.03L965.32 1185.77L965.17 1185.55L964.87 1185.07L964.51 1184.5L964.1 1183.85L963.64 1183.13L963.13 1182.32L962.57 1181.44L961.97 1180.49L961.33 1179.47L960.65 1178.39L959.92 1177.24L959.16 1176.03L958.36 1174.77L957.53 1173.44L956.66 1172.07L955.77 1170.64L954.84 1169.17L953.88 1167.65L952.9 1166.09L951.89 1164.48L950.86 1162.85L949.81 1161.17L948.74 1159.47L947.65 1157.73L946.54 1155.97L945.41 1154.18L944.28 1152.37L943.13 1150.55L941.97 1148.7L940.8 1146.84L939.63 1144.98L938.45 1143.1L937.26 1141.21L936.08 1139.33L934.89 1137.44L933.71 1135.55L932.52 1133.67L931.35 1131.8L930.17 1129.93L929.01 1128.08L927.85 1126.24L927.37 1125.47L926.89 1124.7L926.42 1123.93L925.94 1123.16L925.46 1122.4L924.98 1121.63L924.51 1120.87L924.04 1120.12L923.57 1119.37L923.11 1118.63L922.65 1117.89L922.19 1117.16L921.74 1116.44L921.3 1115.72L920.86 1115.02L920.43 1114.33L920 1113.65L919.59 1112.98L919.18 1112.32L918.77 1111.68L918.38 1111.05L918 1110.44L917.62 1109.85L917.26 1109.27L916.91 1108.71L916.56 1108.16L916.23 1107.64L915.92 1107.13L915.61 1106.65L915.32 1106.19L915.04 1105.75L914.77 1105.33L914.52 1104.94L914.28 1104.57L914.06 1104.23L913.85 1103.91L913.66 1103.62L913.49 1103.36L913.33 1103.12L913.19 1102.92L913.06 1102.71L912.92 1102.48L912.75 1102.22L912.57 1101.94L912.37 1101.63L912.16 1101.29L911.93 1100.93L911.68 1100.55L911.42 1100.15L911.15 1099.72L910.86 1099.27L910.56 1098.8L910.25 1098.32L909.92 1097.81L909.58 1097.29L909.23 1096.75L908.87 1096.19L908.5 1095.61L908.12 1095.02L907.73 1094.42L907.33 1093.81L906.92 1093.18L906.51 1092.54L906.08 1091.88L905.65 1091.22L905.22 1090.55L904.77 1089.87L904.32 1089.18L903.87 1088.48L903.41 1087.77L902.95 1087.06L902.48 1086.35L902.01 1085.63L901.54 1084.91L901.06 1084.18L900.58 1083.45L900.11 1082.72L899.63 1081.99L899.15 1081.26L898.67 1080.53L896.15 1076.67L893.63 1072.91L891.11 1069.23L888.58 1065.64L886.06 1062.13L883.53 1058.72L880.99 1055.38L878.46 1052.14L875.91 1048.97L873.36 1045.89L870.8 1042.89L868.24 1039.98L865.67 1037.15L863.09 1034.39L860.49 1031.72L857.89 1029.13L855.28 1026.62L852.66 1024.18L850.02 1021.83L847.37 1019.55L844.71 1017.35L842.03 1015.23L839.34 1013.18L836.63 1011.2L833.9 1009.31L831.16 1007.48L828.4 1005.73L825.62 1004.05L822.82 1002.44L820 1000.91L817.16 999.44L814.3 998.05L811.42 996.73L808.52 995.47L805.59 994.29L802.64 993.17L799.66 992.12L796.66 991.13L793.63 990.22L790.58 989.36L788.6 988.86L786.56 988.38L784.46 987.93L782.31 987.51L780.11 987.12L777.85 986.76L775.55 986.42L773.19 986.12L770.79 985.84L768.35 985.59L765.86 985.37L763.33 985.17L760.76 985.01L758.15 984.87L755.5 984.76L752.82 984.68L750.11 984.63L747.37 984.61L744.59 984.61L741.79 984.65L738.97 984.71L736.12 984.8L733.24 984.92L730.35 985.06L727.44 985.24L724.5 985.44L721.56 985.67L718.6 985.93L715.63 986.22L712.64 986.53L709.65 986.88L706.65 987.25L703.65 987.65L700.64 988.07L697.63 988.53L694.62 989.01L691.61 989.53L688.61 990.07L685.61 990.63L682.62 991.23L680.99 991.56L679.42 991.89L677.9 992.23L676.43 992.56L675.01 992.91L673.63 993.25L672.3 993.6L671.02 993.96L669.78 994.32L668.58 994.69L667.42 995.07L666.3 995.46L665.22 995.86L664.18 996.27L663.18 996.68L662.21 997.11L661.27 997.55L660.37 998.01L659.5 998.48L658.66 998.96L657.85 999.46L657.07 999.97L656.31 1000.5L655.58 1001.05L654.88 1001.61L654.2 1002.19L653.54 1002.8L652.91 1003.42L652.29 1004.06L651.69 1004.72L651.11 1005.41L650.55 1006.12L650 1006.85L649.47 1007.61L648.95 1008.39L648.44 1009.19L647.94 1010.03L647.45 1010.89L646.97 1011.77L646.5 1012.69L646.18 1013.31L645.86 1013.96L645.55 1014.64L645.24 1015.34L644.93 1016.07L644.62 1016.83L644.32 1017.6L644.02 1018.4L643.72 1019.22L643.43 1020.06L643.14 1020.92L642.86 1021.8L642.58 1022.69L642.3 1023.6L642.03 1024.53L641.76 1025.48L641.5 1026.43L641.25 1027.4L641 1028.39L640.75 1029.38L640.51 1030.39L640.28 1031.4L640.05 1032.42L639.83 1033.45L639.61 1034.49L639.41 1035.54L639.2 1036.58L639.01 1037.64L638.82 1038.69L638.64 1039.75L638.47 1040.81L638.31 1041.87L638.15 1042.93L638.01 1043.99L637.87 1045.05L637.74 1046.1L637.61 1047.15L637.5 1048.2L637.4 1049.24L637.3 1050.27L637.23 1051.12L637.17 1051.93L637.1 1052.71L637.04 1053.46L636.98 1054.19L636.93 1054.9L636.87 1055.6L636.81 1056.27L636.76 1056.94L636.71 1057.59L636.65 1058.24L636.6 1058.89L636.54 1059.53L636.49 1060.18L636.43 1060.83L636.38 1061.49L636.32 1062.15L636.26 1062.84L636.2 1063.53L636.14 1064.25L636.07 1064.99L636 1065.75L635.93 1066.54L635.85 1067.36L635.77 1068.22L635.69 1069.11L635.6 1070.04L635.51 1071.01L635.42 1072.02L635.31 1073.08L635.21 1074.19L635.1 1075.36L634.98 1076.58L634.86 1077.86L634.72 1079.2L634.59 1080.61L634.44 1082.08L634.29 1083.62L634.14 1085.23L633.97 1086.93L633.92 1087.57L633.86 1088.23L633.81 1088.91L633.75 1089.61L633.69 1090.33L633.63 1091.07L633.56 1091.82L633.5 1092.59L633.43 1093.38L633.36 1094.17L633.29 1094.98L633.22 1095.8L633.15 1096.63L633.08 1097.47L633 1098.31L632.93 1099.16L632.85 1100.02L632.77 1100.88L632.7 1101.75L632.62 1102.62L632.54 1103.49L632.46 1104.36L632.39 1105.23L632.31 1106.1L632.23 1106.96L632.15 1107.83L632.08 1108.68L632 1109.53L631.93 1110.38L631.85 1111.22L631.78 1112.04L631.7 1112.86L631.63 1113.67L631.56 1114.46L631.49 1115.24L631.43 1116.01L631.36 1116.76L631.29 1117.5L631.23 1118.21L631.17 1118.91L631.12 1119.61L631.07 1120.33L631.01 1121.06L630.96 1121.82L630.9 1122.58L630.84 1123.36L630.78 1124.16L630.72 1124.96L630.65 1125.78L630.59 1126.61L630.52 1127.45L630.46 1128.29L630.39 1129.14L630.32 1130L630.25 1130.86L630.18 1131.73L630.11 1132.6L630.04 1133.47L629.97 1134.34L629.9 1135.21L629.83 1136.07L629.76 1136.94L629.69 1137.8L629.63 1138.66L629.56 1139.51L629.49 1140.36L629.42 1141.2L629.35 1142.03L629.29 1142.84L629.22 1143.65L629.16 1144.45L629.09 1145.23L629.03 1146L628.97 1146.75L628.91 1147.49L628.85 1148.21L628.8 1148.91L628.74 1149.6L628.69 1150.26L628.64 1150.9L628.58 1151.55L628.51 1152.25L628.45 1152.98L628.38 1153.76L628.31 1154.58L628.24 1155.43L628.16 1156.33L628.09 1157.25L628.01 1158.21L627.93 1159.2L627.85 1160.22L627.77 1161.27L627.68 1162.34L627.6 1163.44L627.51 1164.57L627.43 1165.72L627.34 1166.89L627.25 1168.08L627.16 1169.28L627.07 1170.51L626.98 1171.75L626.89 1173L626.8 1174.27L626.71 1175.54L626.62 1176.83L626.53 1178.12L626.44 1179.42L626.35 1180.73L626.25 1182.03L626.16 1183.34L626.07 1184.65L625.99 1185.96L625.9 1187.27L625.81 1188.57L625.72 1189.87L625.64 1191.16L625.55 1192.44L625.47 1193.71L625.39 1194.97L625.31 1196.22L625.23 1197.47L625.14 1198.74L625.06 1200.03L624.97 1201.33L624.88 1202.65L624.8 1203.99L624.71 1205.34L624.61 1206.7L624.52 1208.07L624.43 1209.44L624.34 1210.82L624.24 1212.21L624.15 1213.6L624.05 1214.99L623.96 1216.38L623.86 1217.76L623.77 1219.15L623.68 1220.52L623.58 1221.89L623.49 1223.26L623.4 1224.61L623.31 1225.95L623.22 1227.27L623.13 1228.58L623.04 1229.88L622.95 1231.15L622.87 1232.41L622.79 1233.65L622.71 1234.86L622.63 1236.04L622.55 1237.2L622.47 1238.34L622.4 1239.44L622.33 1240.51L622.26 1241.55L622.2 1242.55L622.14 1243.52L622.08 1244.45L622.03 1245.35L621.97 1246.2L621.79 1248.93L621.6 1251.67L621.41 1254.41L621.23 1257.17L621.04 1259.94L620.86 1262.72L620.68 1265.52L620.49 1268.33L620.31 1271.16L620.13 1274.02L619.95 1276.9L619.77 1279.8L619.59 1282.73L619.41 1285.69L619.23 1288.68L619.05 1291.71L618.87 1294.76L618.69 1297.86L618.51 1300.99L618.33 1304.16L618.14 1307.37L617.96 1310.63L617.77 1313.93L617.59 1317.28L617.4 1320.67L617.21 1324.12L617.02 1327.62L616.83 1331.18L616.64 1334.79L616.45 1338.47L616.25 1342.2L616.05 1345.99L615.85 1349.85L615.65 1353.78L615.44 1357.77L615.23 1361.83L615.02 1365.96L614.81 1370.17L614.6 1374.45L614.38 1378.81L614.22 1381.93L614.08 1385.05L613.95 1388.14L613.83 1391.23L613.72 1394.29L613.62 1397.34L613.54 1400.36L613.46 1403.35L613.4 1406.32L613.34 1409.27L613.3 1412.18L613.27 1415.05L613.25 1417.9L613.24 1420.7L613.24 1423.47L613.25 1426.19L613.27 1428.87L613.3 1431.5L613.34 1434.09L613.39 1436.62L613.46 1439.1L613.53 1441.53L613.61 1443.9L613.71 1446.21L613.81 1448.47L613.92 1450.65L614.04 1452.78L614.18 1454.83L614.32 1456.82L614.47 1458.73L614.63 1460.57L614.8 1462.33L614.98 1464.02L615.17 1465.62L615.37 1467.14L615.58 1468.58L615.8 1469.93L616.03 1471.19L616.26 1472.36L616.51 1473.44L616.8 1474.62L617.13 1475.8L617.47 1476.99L617.85 1478.2L618.25 1479.4L618.68 1480.62L619.13 1481.83L619.6 1483.06L620.1 1484.28L620.62 1485.5L621.16 1486.73L621.72 1487.95L622.3 1489.17L622.91 1490.39L623.53 1491.6L624.17 1492.81L624.82 1494.01L625.49 1495.2L626.18 1496.39L626.89 1497.56L627.61 1498.73L628.34 1499.88L629.09 1501.02L629.85 1502.14L630.62 1503.25L631.4 1504.34L632.2 1505.42L633 1506.48L633.81 1507.51L634.63 1508.53L635.46 1509.52L636.3 1510.49L637.14 1511.44L637.99 1512.36L638.84 1513.25L639.7 1514.12L640.56 1514.96L641.43 1515.77L642.3 1516.54L643.17 1517.29L644.35 1518.3L645.47 1519.32L646.54 1520.34L647.56 1521.36L648.52 1522.39L649.42 1523.43L650.27 1524.46L651.07 1525.51L651.8 1526.55L652.49 1527.6L653.11 1528.66L653.69 1529.71L654.2 1530.78L654.66 1531.84L655.07 1532.91L655.42 1533.99L655.71 1535.06L655.95 1536.14L656.13 1537.23L656.26 1538.32L656.33 1539.41L656.35 1540.5L656.31 1541.6L656.22 1542.7L656.07 1543.81L655.86 1544.91L655.6 1546.03L655.29 1547.14L654.91 1548.26L654.49 1549.38L654 1550.5L653.47 1551.63L652.87 1552.76L652.22 1553.89L651.52 1555.02L650.76 1556.16L649.94 1557.3L649.07 1558.45L648.15 1559.59L647.16 1560.74L646.47 1561.5L645.63 1562.34L644.67 1563.27L643.58 1564.26L642.37 1565.33L641.04 1566.47L639.6 1567.67L638.06 1568.94L636.41 1570.26L634.66 1571.64L632.82 1573.07L630.89 1574.55L628.87 1576.08L626.78 1577.65L624.61 1579.26L622.37 1580.9L620.06 1582.58L617.7 1584.29L615.27 1586.02L612.79 1587.78L610.27 1589.56L607.7 1591.35L605.1 1593.15L602.46 1594.97L599.79 1596.79L597.09 1598.62L594.38 1600.44L591.65 1602.27L588.9 1604.08L586.16 1605.89L583.41 1607.69L580.66 1609.46L577.92 1611.22L575.19 1612.96L572.48 1614.67L569.79 1616.35L567.13 1618L564.49 1619.61L561.89 1621.18L559.33 1622.72L557.96 1623.53L556.57 1624.35L555.16 1625.17L553.73 1625.99L552.28 1626.82L550.82 1627.65L549.35 1628.47L547.87 1629.3L546.38 1630.13L544.89 1630.95L543.39 1631.77L541.88 1632.58L540.38 1633.39L538.88 1634.19L537.39 1634.98L535.9 1635.76L534.41 1636.54L532.94 1637.3L531.48 1638.05L530.03 1638.79L528.59 1639.52L527.18 1640.23L525.78 1640.92L524.4 1641.6L523.05 1642.26L521.72 1642.9L520.42 1643.52L519.14 1644.13L517.9 1644.71L516.69 1645.26L515.52 1645.8L514.38 1646.31L513.28 1646.79L512.22 1647.25L511.2 1647.67L510.23 1648.07L509.3 1648.45L508.42 1648.79L507.6 1649.1L506.82 1649.37L506.06 1649.63L505.29 1649.87L504.52 1650.09L503.74 1650.31L502.96 1650.51L502.18 1650.7L501.39 1650.87L500.6 1651.04L499.81 1651.19L499.03 1651.32L498.24 1651.45L497.45 1651.56L496.67 1651.66L495.88 1651.74L495.1 1651.82L494.32 1651.88L493.55 1651.92L492.78 1651.96L492.02 1651.98L491.26 1651.99L490.51 1651.98L489.76 1651.97L489.03 1651.94L488.3 1651.9L487.58 1651.84L486.87 1651.77L486.17 1651.69L485.48 1651.6L484.81 1651.5L484.14 1651.38L483.49 1651.25L482.85 1651.1L482.23 1650.95L481.62 1650.78L481.02 1650.6L480.44 1650.4L479.88 1650.2L479.33 1649.98L478.81 1649.75L478.3 1649.51L477.26 1648.96L476.23 1648.36L475.22 1647.73L474.23 1647.06L473.25 1646.35L472.29 1645.6L471.34 1644.8L470.41 1643.97L469.49 1643.09L468.59 1642.17L467.71 1641.22L466.84 1640.22L465.99 1639.18L465.15 1638.1L464.32 1636.98L463.52 1635.81L462.72 1634.61L461.95 1633.36L461.18 1632.07L460.44 1630.75L459.71 1629.38L458.99 1627.96L458.29 1626.51L457.6 1625.02L456.93 1623.48L456.27 1621.9L455.62 1620.28L455 1618.62L454.38 1616.91L453.78 1615.17L453.2 1613.38L452.63 1611.55L452.07 1609.68L451.53 1607.76L451 1605.81L450.49 1603.81L449.99 1601.77L449.5 1599.69L449.03 1597.56L448.58 1595.39L448.03 1592.57L447.5 1589.6L447 1586.47L446.53 1583.19L446.08 1579.77L445.65 1576.22L445.25 1572.52L444.87 1568.7L444.52 1564.75L444.19 1560.68L443.88 1556.5L443.6 1552.2L443.35 1547.8L443.12 1543.29L442.91 1538.68L442.73 1533.99L442.58 1529.2L442.45 1524.32L442.34 1519.37L442.26 1514.34L442.21 1509.24L442.18 1504.07L442.17 1498.84L442.19 1493.56L442.24 1488.22L442.31 1482.83L442.41 1477.4L442.53 1471.92L442.68 1466.42L442.86 1460.88L443.06 1455.31L443.29 1449.73L443.54 1444.12L443.82 1438.51L444.12 1432.88L444.45 1427.26L444.81 1421.63L445.2 1416.01L445.61 1410.4L446.04 1404.8L446.09 1404.13L446.15 1403.44L446.2 1402.73L446.26 1402L446.32 1401.25L446.38 1400.48L446.44 1399.7L446.5 1398.91L446.56 1398.1L446.63 1397.28L446.69 1396.45L446.76 1395.61L446.83 1394.75L446.9 1393.89L446.97 1393.03L447.04 1392.16L447.11 1391.28L447.18 1390.4L447.25 1389.51L447.33 1388.62L447.4 1387.74L447.47 1386.85L447.54 1385.96L447.62 1385.08L447.69 1384.2L447.76 1383.33L447.83 1382.46L447.91 1381.59L447.98 1380.74L448.05 1379.89L448.12 1379.06L448.19 1378.23L448.26 1377.42L448.32 1376.62L448.39 1375.83L448.46 1375.06L448.52 1374.3L448.59 1373.57L448.65 1372.85L448.71 1372.15L448.76 1371.44L448.82 1370.69L448.87 1369.91L448.94 1369.09L449 1368.23L449.07 1367.35L449.14 1366.43L449.21 1365.49L449.28 1364.51L449.36 1363.51L449.44 1362.49L449.52 1361.44L449.6 1360.37L449.69 1359.27L449.77 1358.16L449.86 1357.03L449.95 1355.88L450.04 1354.72L450.13 1353.54L450.22 1352.35L450.32 1351.15L450.41 1349.95L450.5 1348.73L450.6 1347.5L450.69 1346.27L450.79 1345.04L450.88 1343.8L450.98 1342.57L451.07 1341.33L451.16 1340.1L451.26 1338.87L451.35 1337.64L451.44 1336.42L451.53 1335.21L451.62 1334L451.71 1332.81L451.79 1331.63L451.88 1330.46L451.96 1329.3L452.04 1328.16L452.21 1325.95L452.37 1323.77L452.54 1321.63L452.7 1319.52L452.86 1317.43L453.01 1315.38L453.17 1313.35L453.32 1311.34L453.47 1309.36L453.62 1307.4L453.76 1305.47L453.91 1303.55L454.05 1301.65L454.19 1299.77L454.34 1297.9L454.48 1296.04L454.62 1294.2L454.76 1292.37L454.9 1290.54L455.04 1288.73L455.18 1286.92L455.32 1285.12L455.46 1283.32L455.6 1281.52L455.74 1279.72L455.88 1277.92L456.03 1276.12L456.17 1274.31L456.32 1272.5L456.46 1270.68L456.61 1268.85L456.76 1267.02L456.91 1265.17L457.07 1263.31L457.22 1261.43L457.38 1259.54L457.54 1257.63L457.7 1255.71L457.87 1253.76L458.04 1251.79L458.26 1248.95L458.48 1246.2L458.7 1243.53L458.9 1240.95L459.1 1238.44L459.29 1236.01L459.48 1233.65L459.66 1231.37L459.84 1229.14L460.01 1226.98L460.17 1224.88L460.33 1222.84L460.49 1220.84L460.64 1218.9L460.79 1217L460.94 1215.14L461.08 1213.32L461.22 1211.54L461.35 1209.79L461.49 1208.06L461.62 1206.36L461.75 1204.68L461.88 1203.02L462 1201.38L462.13 1199.74L462.25 1198.11L462.37 1196.49L462.5 1194.87L462.62 1193.24L462.74 1191.61L462.87 1189.97L462.99 1188.32L463.11 1186.65L463.24 1184.96L463.37 1183.25L463.5 1181.51L463.63 1179.74L463.76 1177.94L463.9 1176.1L464.04 1174.22L464.12 1173.12L464.2 1171.99L464.28 1170.84L464.37 1169.69L464.45 1168.51L464.54 1167.33L464.63 1166.13L464.72 1164.93L464.8 1163.72L464.89 1162.5L464.98 1161.27L465.07 1160.05L465.17 1158.82L465.26 1157.59L465.35 1156.36L465.44 1155.13L465.53 1153.91L465.62 1152.7L465.71 1151.49L465.8 1150.28L465.89 1149.09L465.98 1147.91L466.07 1146.74L466.16 1145.59L466.24 1144.45L466.33 1143.33L466.41 1142.23L466.5 1141.14L466.58 1140.08L466.66 1139.04L466.74 1138.03L466.82 1137.04L466.89 1136.08L466.97 1135.15L467.04 1134.25L467.11 1133.38L467.18 1132.54L467.24 1131.74L467.31 1130.97L467.37 1130.24L467.49 1128.78L467.61 1127.31L467.73 1125.83L467.85 1124.34L467.96 1122.84L468.08 1121.33L468.2 1119.8L468.32 1118.25L468.45 1116.69L468.57 1115.1L468.69 1113.49L468.81 1111.86L468.94 1110.2L469.07 1108.51L469.2 1106.79L469.33 1105.04L469.46 1103.26L469.59 1101.44L469.73 1099.58L469.87 1097.69L470.01 1095.75L470.15 1093.78L470.3 1091.75L470.45 1089.69L470.6 1087.57L470.76 1085.41L470.92 1083.19L471.08 1080.93L471.25 1078.6L471.42 1076.23L471.59 1073.79L471.77 1071.29L471.95 1068.73L472.14 1066.11L472.33 1063.42L472.53 1060.67L472.73 1057.84L472.94 1054.95L473.15 1051.98L473.37 1048.94L473.45 1047.77L473.53 1046.58L473.61 1045.38L473.7 1044.15L473.78 1042.92L473.87 1041.67L473.96 1040.41L474.04 1039.14L474.13 1037.86L474.22 1036.57L474.31 1035.28L474.4 1033.99L474.5 1032.69L474.59 1031.39L474.68 1030.09L474.77 1028.8L474.86 1027.5L474.95 1026.22L475.04 1024.94L475.13 1023.67L475.22 1022.4L475.31 1021.15L475.4 1019.92L475.49 1018.69L475.57 1017.48L475.66 1016.29L475.74 1015.12L475.83 1013.97L475.91 1012.84L475.99 1011.74L476.07 1010.65L476.15 1009.6L476.22 1008.57L476.3 1007.57L476.37 1006.61L476.44 1005.67L476.51 1004.77L476.57 1003.91L476.64 1003.08L476.7 1002.29L476.99 998.24L477.29 994.25L477.57 990.33L477.85 986.48L478.12 982.69L478.39 978.95L478.66 975.28L478.92 971.67L479.17 968.1L479.42 964.6L479.66 961.14L479.9 957.74L480.14 954.38L480.37 951.07L480.6 947.8L480.82 944.57L481.04 941.39L481.26 938.24L481.47 935.13L481.68 932.05L481.88 929.01L482.09 926L482.29 923.02L482.48 920.06L482.68 917.13L482.87 914.23L483.06 911.34L483.25 908.48L483.43 905.63L483.61 902.81L483.79 899.99L483.97 897.19L484.15 894.4L484.33 891.62L484.5 888.84L484.68 886.07L484.85 883.3L485.02 880.54L485.19 877.78L485.36 875.01L485.44 873.65L485.52 872.26L485.61 870.86L485.69 869.43L485.78 867.99L485.86 866.53L485.95 865.06L486.04 863.58L486.13 862.09L486.22 860.58L486.31 859.08L486.4 857.56L486.49 856.04L486.58 854.53L486.67 853.01L486.76 851.49L486.86 849.98L486.95 848.47L487.04 846.98L487.13 845.49L487.22 844.01L487.31 842.54L487.39 841.09L487.48 839.66L487.57 838.24L487.65 836.84L487.74 835.47L487.82 834.11L487.9 832.79L487.98 831.49L488.06 830.22L488.14 828.98L488.22 827.77L488.29 826.59L488.36 825.45L488.43 824.35L488.5 823.29L488.57 822.27L488.63 821.3L488.69 820.36L488.94 816.35L489.19 812.35L489.43 808.36L489.67 804.38L489.91 800.4L490.14 796.42L490.38 792.43L490.61 788.43L490.84 784.42L491.07 780.39L491.3 776.35L491.53 772.27L491.75 768.18L491.98 764.05L492.2 759.88L492.43 755.68L492.65 751.43L492.88 747.14L493.1 742.8L493.32 738.41L493.55 733.96L493.78 729.45L494 724.88L494.23 720.24L494.46 715.52L494.69 710.73L494.92 705.87L495.15 700.92L495.39 695.88L495.63 690.76L495.87 685.54L496.11 680.22L496.35 674.81L496.6 669.29L496.85 663.66L497.11 657.92L497.36 652.06L497.62 646.09L497.89 639.99L498.16 633.77L498.54 624.42L498.91 615.1L499.25 605.83L499.56 596.6L499.86 587.42L500.12 578.29L500.37 569.23L500.59 560.23L500.79 551.29L500.96 542.44L501.11 533.66L501.24 524.97L501.34 516.38L501.42 507.87L501.48 499.47L501.51 491.17L501.52 482.98L501.5 474.9L501.47 466.95L501.4 459.12L501.32 451.42L501.21 443.86L501.08 436.44L500.93 429.16L500.75 422.03L500.55 415.06L500.33 408.25L500.08 401.6L499.82 395.12L499.52 388.82L499.21 382.7L498.87 376.76L498.51 371.02L498.13 365.47L497.72 360.12L497.3 354.97L496.85 350.04L496.37 345.32L495.88 340.82L495.36 336.55L495.24 335.65L495.09 334.69L494.93 333.7L494.75 332.66L494.55 331.58L494.34 330.47L494.11 329.33L493.86 328.17L493.61 326.98L493.33 325.77L493.05 324.55L492.76 323.32L492.46 322.08L492.15 320.83L491.83 319.59L491.51 318.35L491.18 317.11L490.85 315.89L490.51 314.68L490.18 313.49L489.84 312.33L489.5 311.18L489.17 310.07L488.83 308.99L488.5 307.95L488.18 306.95L487.86 305.99L487.54 305.08L487.24 304.22L486.94 303.41L486.65 302.67L486.38 301.99L486.12 301.37L485.86 300.83L485.63 300.36L485.41 299.96L485.2 299.65L485.01 299.42L484.84 299.28L484.69 299.23L484.35 299.25L483.92 299.32L483.4 299.42L482.8 299.56L482.12 299.73L481.37 299.94L480.55 300.19L479.66 300.47L478.7 300.78L477.68 301.12L476.6 301.49L475.47 301.89L474.29 302.32L473.05 302.77L471.77 303.25L470.45 303.75L469.08 304.27L467.68 304.81L466.25 305.37L464.79 305.95L463.3 306.54L461.78 307.15L460.25 307.78L458.7 308.42L457.13 309.07L455.56 309.73L453.98 310.4L452.39 311.07L450.8 311.76L449.21 312.45L447.63 313.14L446.06 313.84L444.5 314.53L442.96 315.23L441.43 315.93L439.92 316.62L438.44 317.32L436.99 318L435.57 318.68L434.18 319.36L432.39 320.23L430.65 321.07L428.97 321.89L427.32 322.7L425.72 323.48L424.15 324.26L422.62 325.02L421.11 325.78L419.62 326.53L418.15 327.27L416.69 328.02L415.24 328.77L413.8 329.52L412.35 330.28L410.9 331.04L409.44 331.82L407.96 332.61L406.46 333.42L404.94 334.25L403.39 335.1L401.81 335.98L400.19 336.88L398.53 337.81L396.82 338.77L395.06 339.77L393.25 340.8L391.37 341.87L389.43 342.99L387.42 344.15L385.34 345.35L383.17 346.61L380.93 347.92L378.59 349.28L376.17 350.7L373.64 352.17L371.02 353.71L368.29 355.32L365.44 356.99L362.49 358.73L359.41 360.54L354.4 363.5L349.63 366.31L345.09 368.98L340.79 371.52L336.71 373.92L332.84 376.19L329.18 378.34L325.73 380.37L322.46 382.28L319.39 384.08L316.49 385.77L313.77 387.35L311.21 388.83L308.81 390.21L306.56 391.5L304.46 392.7L302.49 393.82L300.65 394.85L298.93 395.8L297.33 396.68L295.84 397.49L294.45 398.23L293.16 398.9L291.95 399.52L290.82 400.09L289.76 400.6L288.77 401.06L287.84 401.48L286.96 401.86L286.13 402.21L285.33 402.52L284.56 402.8L283.81 403.06L283.08 403.3L282.36 403.53L281.64 403.74L280.92 403.94L280.18 404.13L279.43 404.33L278.64 404.53L277.72 404.75L276.8 404.95L275.9 405.11L275 405.25L274.12 405.36L273.24 405.44L272.38 405.49L271.53 405.51L270.69 405.51L269.86 405.47L269.04 405.41L268.23 405.32L267.44 405.2L266.65 405.05L265.88 404.88L265.13 404.67L264.38 404.44L263.65 404.19L262.94 403.9L262.23 403.59L261.54 403.25L260.86 402.89L260.2 402.5L259.55 402.08L258.92 401.63L258.3 401.16L257.7 400.66L257.11 400.14L256.54 399.59L255.98 399.01L255.44 398.41L254.92 397.79L254.41 397.13L253.91 396.46L253.44 395.75L252.98 395.02L252.54 394.27L252.11 393.49L251.71 392.69L251.32 391.86L251.09 391.37L250.88 390.87L250.68 390.38L250.49 389.89L250.31 389.41L250.14 388.93L249.98 388.45L249.83 387.97L249.7 387.49L249.57 387.01L249.46 386.53L249.35 386.05L249.26 385.56L249.18 385.08L249.11 384.59L249.05 384.1L249 383.61L248.96 383.11L248.94 382.61L248.92 382.1L248.92 381.59L248.92 381.07L248.94 380.54L248.97 380.01L249.01 379.47L249.06 378.92L249.12 378.37L249.19 377.8L249.28 377.23L249.37 376.64L249.48 376.05L249.59 375.44L249.72 374.83L249.86 374.2L250.01 373.55L250.17 372.9L250.34 372.23L250.52 371.55L250.71 370.85L250.92 370.14L251.3 368.87L251.71 367.59L252.14 366.3L252.59 365.01L253.07 363.71L253.57 362.41L254.1 361.1L254.65 359.79L255.21 358.48L255.8 357.17L256.42 355.86L257.05 354.54L257.7 353.23L258.37 351.91L259.07 350.6L259.78 349.28L260.51 347.97L261.26 346.67L262.03 345.36L262.81 344.07L263.62 342.77L264.44 341.48L265.28 340.2L266.13 338.92L267 337.65L267.88 336.39L268.78 335.14L269.7 333.89L270.63 332.66L271.57 331.43L272.53 330.22L273.5 329.02L274.49 327.83L275.48 326.65L276.49 325.49L277.51 324.34L278.55 323.2L279.59 322.08L280.64 320.98L281.71 319.89L283.23 318.38L284.9 316.8L286.69 315.15L288.6 313.45L290.64 311.68L292.79 309.86L295.06 307.99L297.44 306.06L299.92 304.09L302.51 302.08L305.19 300.02L307.96 297.92L310.83 295.78L313.78 293.61L316.81 291.41L319.92 289.18L323.1 286.92L326.36 284.64L329.67 282.34L333.05 280.02L336.49 277.69L339.98 275.34L343.52 272.99L347.11 270.62L350.73 268.26L354.4 265.89L358.09 263.52L361.82 261.15L365.57 258.8L369.35 256.45L373.14 254.11L376.94 251.79L380.76 249.48L384.58 247.2L388.4 244.94L392.22 242.7L396.03 240.49L399.83 238.31L403.62 236.17L407.39 234.06L408.3 233.56L409.33 233L410.46 232.4L411.7 231.74L413.03 231.03L414.46 230.29L415.97 229.5L417.57 228.67L419.23 227.81L420.97 226.91L422.76 225.99L424.62 225.04L426.52 224.07L428.46 223.07L430.45 222.06L432.46 221.04L434.51 220L436.57 218.96L438.64 217.91L440.73 216.87L442.82 215.82L444.9 214.77L446.97 213.73L449.03 212.71L451.07 211.69L453.07 210.69L455.05 209.71L456.99 208.76L458.88 207.82L460.71 206.92L462.5 206.05L464.21 205.21L465.86 204.4L467.44 203.64L468.93 202.92L470.33 202.25L471.65 201.62L472.86 201.05L473.97 200.53L474.97 200.07L475.77 199.71L476.57 199.33L477.36 198.94L478.14 198.54L478.92 198.12L479.69 197.69L480.46 197.25L481.22 196.79L481.98 196.32L482.73 195.84L483.48 195.33L484.22 194.82L484.97 194.28L485.71 193.74L486.44 193.17L487.18 192.59L487.91 191.99L488.64 191.37L489.38 190.73L490.11 190.08L490.84 189.4L491.57 188.71L492.31 187.99L493.04 187.26L493.78 186.51L494.52 185.73L495.26 184.94L496.01 184.12L496.76 183.28L497.51 182.42L498.27 181.53L499.03 180.62L499.8 179.69L500.57 178.74L501.35 177.76L502.14 176.75L502.93 175.72L503.73 174.67L504.54 173.59L505.35 172.48L506.42 171.05L507.51 169.62L508.63 168.19L509.76 166.77L510.93 165.35L512.11 163.93L513.32 162.52L514.56 161.11L515.82 159.69L517.12 158.28L518.44 156.87L519.79 155.45L521.18 154.03L522.59 152.61L524.04 151.18L525.52 149.75L527.03 148.31L528.58 146.86L530.17 145.41L531.79 143.94L533.45 142.47L535.15 140.99L536.89 139.5L538.67 137.99L540.49 136.48L542.35 134.95L544.26 133.4L546.21 131.85L548.2 130.27L550.24 128.68L552.33 127.07L554.46 125.45L556.64 123.8L558.87 122.14L561.15 120.46L563.48 118.75L565.86 117.03L568.3 115.28L570.78 113.5L573.33 111.71L574.94 110.59L576.54 109.49L578.12 108.41L579.69 107.34L581.25 106.3L582.79 105.28L584.31 104.28L585.82 103.3L587.32 102.34L588.8 101.4L590.26 100.48L591.71 99.58L593.14 98.71L594.56 97.85L595.96 97.01L597.34 96.2L598.71 95.4L600.06 94.63L601.4 93.88L602.72 93.15L604.02 92.44L605.3 91.75L606.57 91.08L607.82 90.44L609.05 89.82L610.26 89.22L611.46 88.64L612.63 88.09L613.79 87.55L614.94 87.04L616.06 86.55L617.16 86.09L618.25 85.64L619.31 85.22L620.36 84.82L621.39 84.45L622.4 84.1L623.39 83.77L624.36 83.47L625.31 83.18L625.64 83.09L625.97 82.99L626.3 82.9L626.63 82.8L626.97 82.72L627.3 82.63L627.63 82.55L627.96 82.47L628.29 82.39L628.62 82.31L628.95 82.24L629.27 82.17L629.59 82.1L629.91 82.04L630.23 81.98L630.54 81.92L630.84 81.87L631.15 81.81L631.44 81.76L631.74 81.72L632.02 81.67L632.31 81.63L632.58 81.6L632.85 81.56L633.11 81.53L633.36 81.5L633.61 81.48L633.85 81.46L634.08 81.44L634.3 81.42L634.52 81.41L634.72 81.4L634.91 81.4L635.1 81.39L635.27 81.39L635.43 81.4ZM799.09 231.42L795.99 231.46L792.88 231.52L789.76 231.6L786.64 231.69L783.51 231.8L780.38 231.93L777.24 232.07L774.08 232.23L770.92 232.41L767.75 232.6L764.57 232.81L761.38 233.04L758.17 233.29L754.95 233.55L751.72 233.83L748.47 234.13L745.2 234.44L741.92 234.78L738.62 235.13L735.31 235.49L731.98 235.88L728.62 236.28L725.25 236.7L721.86 237.13L718.44 237.59L715 238.06L713.56 238.26L712.16 238.46L710.8 238.66L709.48 238.86L708.19 239.06L706.95 239.26L705.74 239.46L704.56 239.67L703.43 239.87L702.33 240.08L701.26 240.28L700.24 240.49L699.24 240.7L698.29 240.91L697.37 241.13L696.48 241.34L695.62 241.56L694.8 241.78L694.02 242L693.26 242.22L692.54 242.45L691.85 242.68L691.2 242.91L690.57 243.14L689.98 243.38L689.42 243.62L688.89 243.86L688.38 244.11L687.91 244.36L687.47 244.62L687.06 244.87L686.68 245.14L686.32 245.4L686 245.67L685.7 245.95L685.43 246.23L685.18 246.51L684.97 246.8L684.78 247.09L684.62 247.39L684.56 247.53L684.5 247.75L684.44 248.05L684.38 248.43L684.33 248.89L684.28 249.43L684.22 250.04L684.17 250.73L684.12 251.49L684.07 252.32L684.02 253.23L683.98 254.2L683.93 255.25L683.89 256.36L683.84 257.54L683.8 258.78L683.76 260.09L683.72 261.46L683.69 262.9L683.65 264.4L683.62 265.95L683.58 267.57L683.55 269.24L683.52 270.97L683.49 272.76L683.47 274.6L683.44 276.5L683.42 278.44L683.4 280.44L683.38 282.49L683.36 284.59L683.35 286.74L683.33 288.93L683.32 291.17L683.31 293.45L683.3 295.78L683.29 298.15L683.29 300.56L683.28 303.01L683.28 305.5L683.28 307.81L683.28 310.15L683.27 312.52L683.27 314.91L683.26 317.32L683.25 319.74L683.24 322.18L683.22 324.63L683.21 327.08L683.19 329.54L683.17 332.01L683.15 334.47L683.12 336.93L683.1 339.39L683.07 341.83L683.04 344.27L683.02 346.69L682.98 349.09L682.95 351.47L682.92 353.83L682.88 356.16L682.84 358.47L682.81 360.74L682.77 362.98L682.72 365.18L682.68 367.34L682.64 369.46L682.59 371.54L682.54 373.56L682.5 375.54L682.45 377.46L682.4 379.32L682.34 381.13L682.29 382.87L682.24 384.55L682.18 386.16L682.13 387.7L682.07 389.16L682.01 390.55L681.95 391.86L681.9 393.15L681.85 394.48L681.79 395.86L681.74 397.29L681.68 398.75L681.62 400.26L681.56 401.8L681.49 403.38L681.43 404.99L681.37 406.63L681.3 408.31L681.23 410L681.16 411.73L681.1 413.47L681.03 415.23L680.95 417.01L680.88 418.81L680.81 420.62L680.74 422.44L680.67 424.27L680.6 426.1L680.52 427.94L680.45 429.78L680.38 431.62L680.3 433.46L680.23 435.29L680.16 437.11L680.09 438.93L680.02 440.73L679.95 442.52L679.88 444.3L679.81 446.05L679.74 447.79L679.67 449.5L679.6 451.19L679.54 452.85L679.47 454.48L679.41 456.08L679.35 457.64L679.29 459.17L679.22 460.69L679.16 462.24L679.1 463.81L679.03 465.4L678.97 467.01L678.9 468.64L678.83 470.28L678.76 471.94L678.7 473.61L678.62 475.28L678.55 476.96L678.48 478.65L678.41 480.34L678.34 482.03L678.27 483.72L678.19 485.41L678.12 487.09L678.05 488.77L677.97 490.44L677.9 492.09L677.83 493.73L677.76 495.36L677.69 496.97L677.62 498.56L677.54 500.13L677.48 501.68L677.41 503.2L677.34 504.7L677.27 506.17L677.2 507.6L677.14 509L677.08 510.37L677.01 511.7L676.95 512.99L676.89 514.24L676.83 515.45L676.78 516.62L676.72 517.73L676.67 518.8L676.62 519.81L676.56 520.82L676.5 521.86L676.43 522.92L676.37 524.01L676.3 525.13L676.24 526.28L676.17 527.45L676.1 528.63L676.03 529.84L675.96 531.07L675.89 532.31L675.82 533.57L675.75 534.84L675.67 536.13L675.6 537.42L675.53 538.72L675.45 540.03L675.38 541.35L675.31 542.67L675.24 543.99L675.16 545.31L675.09 546.63L675.02 547.95L674.95 549.26L674.88 550.57L674.81 551.88L674.74 553.17L674.67 554.45L674.61 555.72L674.54 556.98L674.47 558.22L674.41 559.45L674.35 560.66L674.29 561.84L674.23 563.01L674.17 564.15L674.11 565.27L674.06 566.36L674 567.43L673.95 568.46L671.29 613.78L671.24 614.65L671.18 615.57L671.13 616.54L671.07 617.56L671 618.61L670.94 619.71L670.87 620.85L670.8 622.02L670.73 623.23L670.66 624.47L670.58 625.74L670.5 627.05L670.42 628.38L670.34 629.74L670.26 631.13L670.17 632.53L670.09 633.96L670 635.41L669.91 636.87L669.82 638.35L669.73 639.84L669.64 641.35L669.55 642.86L669.46 644.39L669.36 645.92L669.27 647.45L669.17 648.99L669.08 650.53L668.98 652.07L668.89 653.6L668.79 655.14L668.7 656.66L668.6 658.18L668.51 659.69L668.42 661.18L668.32 662.66L668.23 664.13L668.14 665.58L668.05 667.01L667.96 668.42L667.82 670.82L667.68 673.16L667.55 675.45L667.42 677.69L667.29 679.88L667.16 682.03L667.04 684.15L666.91 686.23L666.79 688.29L666.66 690.32L666.54 692.33L666.42 694.33L666.29 696.32L666.17 698.3L666.05 700.28L665.92 702.25L665.8 704.24L665.67 706.23L665.54 708.24L665.41 710.27L665.27 712.32L665.14 714.4L665 716.51L664.86 718.66L664.71 720.84L664.56 723.07L664.41 725.35L664.25 727.68L664.09 730.07L663.93 732.52L663.76 735.04L663.58 737.62L663.4 740.28L663.21 743.02L663.02 745.84L662.82 748.74L662.62 751.74L662.4 754.83L662.18 758.02L661.96 761.32L661.45 768.62L660.97 775.6L660.51 782.27L660.07 788.62L659.65 794.68L659.26 800.45L658.89 805.93L658.54 811.13L658.21 816.06L657.9 820.73L657.61 825.14L657.34 829.31L657.1 833.23L656.87 836.93L656.66 840.4L656.47 843.65L656.29 846.69L656.14 849.53L656 852.17L655.88 854.63L655.77 856.91L655.69 859.02L655.61 860.96L655.56 862.74L655.52 864.38L655.49 865.87L655.48 867.23L655.48 868.46L655.5 869.57L655.53 870.57L655.57 871.47L655.63 872.26L655.7 872.97L655.78 873.6L655.87 874.16L655.97 874.64L656.09 875.07L656.21 875.45L656.35 875.78L656.49 876.07L656.87 876.71L657.31 877.33L657.8 877.93L658.35 878.51L658.96 879.07L659.62 879.61L660.34 880.13L661.11 880.63L661.94 881.11L662.83 881.57L663.77 882.01L664.77 882.42L665.82 882.82L666.93 883.2L668.09 883.56L669.3 883.89L670.57 884.21L671.9 884.51L673.27 884.78L674.7 885.04L676.19 885.27L677.72 885.49L679.31 885.68L680.95 885.85L682.65 886.01L684.4 886.14L686.19 886.25L688.04 886.34L689.95 886.41L691.9 886.46L693.9 886.49L695.96 886.49L698.06 886.48L700.22 886.45L702.43 886.39L704.68 886.32L706.99 886.22L709.35 886.1L711.75 885.96L714.2 885.8L716.22 885.66L718.26 885.51L720.33 885.34L722.43 885.18L724.55 885L726.68 884.81L728.83 884.62L730.99 884.42L733.17 884.22L735.35 884.01L737.54 883.79L739.73 883.57L741.92 883.34L744.11 883.11L746.29 882.88L748.46 882.63L750.62 882.39L752.77 882.14L754.91 881.89L757.02 881.64L759.11 881.38L761.18 881.12L763.23 880.86L765.24 880.6L767.22 880.34L769.16 880.08L771.07 879.81L772.94 879.55L774.76 879.28L776.54 879.02L778.27 878.76L779.95 878.49L781.58 878.23L783.15 877.97L784.66 877.72L786.11 877.46L787.5 877.21L788.82 876.96L790.06 876.72L791.24 876.47L799.63 874.67L807.87 872.81L815.98 870.89L823.95 868.92L831.78 866.89L839.49 864.8L847.07 862.66L854.52 860.44L861.85 858.17L869.06 855.83L876.16 853.42L883.14 850.95L890.01 848.41L896.77 845.8L903.42 843.11L909.97 840.36L916.43 837.53L922.78 834.62L929.04 831.64L935.2 828.58L941.28 825.43L947.27 822.21L953.17 818.91L958.99 815.52L964.74 812.04L970.41 808.48L976 804.84L981.52 801.1L986.98 797.27L992.37 793.35L997.7 789.34L1002.96 785.23L1008.18 781.02L1013.33 776.72L1018.44 772.32L1023.49 767.82L1028.5 763.22L1033.47 758.51L1038.39 753.71L1043.28 748.79L1045.14 746.89L1046.97 744.99L1048.78 743.11L1050.55 741.24L1052.3 739.37L1054.01 737.52L1055.7 735.66L1057.37 733.82L1059.01 731.97L1060.62 730.14L1062.22 728.3L1063.78 726.46L1065.33 724.63L1066.85 722.79L1068.36 720.95L1069.84 719.11L1071.31 717.27L1072.76 715.42L1074.18 713.57L1075.6 711.7L1076.99 709.84L1078.37 707.96L1079.74 706.07L1081.1 704.18L1082.44 702.27L1083.76 700.35L1085.08 698.42L1086.39 696.47L1087.68 694.5L1088.97 692.52L1090.25 690.53L1091.52 688.51L1092.79 686.48L1094.05 684.42L1095.3 682.35L1096.55 680.25L1097.8 678.13L1099.04 675.99L1100.28 673.82L1101.52 671.62L1102.61 669.66L1103.69 667.67L1104.76 665.64L1105.83 663.58L1106.89 661.49L1107.94 659.37L1108.98 657.22L1110.01 655.04L1111.03 652.84L1112.04 650.62L1113.04 648.38L1114.03 646.11L1115.01 643.83L1115.97 641.53L1116.91 639.21L1117.85 636.89L1118.77 634.55L1119.67 632.2L1120.56 629.84L1121.43 627.47L1122.28 625.1L1123.12 622.72L1123.94 620.35L1124.73 617.97L1125.51 615.59L1126.27 613.22L1127.01 610.84L1127.72 608.48L1128.42 606.12L1129.09 603.77L1129.74 601.43L1130.36 599.11L1130.97 596.79L1131.54 594.5L1132.09 592.22L1132.62 589.95L1133.11 587.71L1133.58 585.49L1134.03 583.29L1134.44 581.12L1134.9 578.53L1135.33 575.85L1135.74 573.11L1136.13 570.3L1136.5 567.43L1136.84 564.49L1137.15 561.5L1137.45 558.46L1137.72 555.37L1137.96 552.23L1138.18 549.05L1138.38 545.83L1138.56 542.58L1138.71 539.29L1138.84 535.98L1138.94 532.64L1139.02 529.28L1139.08 525.9L1139.11 522.51L1139.12 519.11L1139.11 515.71L1139.07 512.3L1139.01 508.89L1138.92 505.49L1138.81 502.09L1138.68 498.7L1138.52 495.33L1138.34 491.98L1138.14 488.65L1137.91 485.35L1137.66 482.07L1137.38 478.83L1137.08 475.63L1136.75 472.46L1136.41 469.34L1136.03 466.26L1135.64 463.24L1135.22 460.27L1134.78 457.36L1134.31 454.51L1133.67 450.83L1132.99 447.18L1132.27 443.56L1131.51 439.96L1130.71 436.39L1129.87 432.85L1128.99 429.33L1128.07 425.84L1127.1 422.37L1126.1 418.93L1125.06 415.51L1123.98 412.12L1122.85 408.76L1121.69 405.42L1120.48 402.11L1119.24 398.82L1117.95 395.56L1116.63 392.32L1115.26 389.1L1113.85 385.92L1112.4 382.75L1110.91 379.61L1109.38 376.5L1107.8 373.41L1106.19 370.34L1104.53 367.3L1102.84 364.28L1101.1 361.29L1099.32 358.32L1097.5 355.38L1095.63 352.45L1093.73 349.56L1091.78 346.68L1089.8 343.83L1087.77 341.01L1085.7 338.2L1083.59 335.42L1081.43 332.67L1079.23 329.93L1077 327.22L1075.25 325.18L1073.45 323.15L1071.58 321.11L1069.64 319.08L1067.65 317.06L1065.6 315.04L1063.5 313.03L1061.34 311.03L1059.12 309.04L1056.85 307.06L1054.54 305.1L1052.17 303.14L1049.76 301.2L1047.31 299.27L1044.81 297.36L1042.26 295.47L1039.68 293.6L1037.06 291.75L1034.41 289.91L1031.71 288.1L1028.99 286.32L1026.23 284.55L1023.44 282.81L1020.63 281.1L1017.79 279.42L1014.92 277.76L1012.03 276.13L1009.11 274.54L1006.18 272.97L1003.23 271.44L1000.26 269.95L997.27 268.48L994.27 267.06L991.26 265.67L988.24 264.32L985.21 263.01L982.17 261.74L979.13 260.51L976.09 259.32L973.04 258.18L972 257.81L970.92 257.42L969.8 257.03L968.65 256.63L967.48 256.23L966.27 255.81L965.03 255.4L963.78 254.97L962.5 254.55L961.21 254.12L959.9 253.69L958.57 253.26L957.24 252.83L955.9 252.4L954.56 251.97L953.21 251.55L951.87 251.13L950.53 250.71L949.19 250.29L947.86 249.89L946.55 249.48L945.25 249.09L943.96 248.7L942.69 248.33L941.45 247.96L940.23 247.6L939.04 247.26L937.87 246.92L936.74 246.61L935.65 246.3L934.59 246.01L933.57 245.73L932.59 245.47L931.66 245.23L930.78 245.01L929.95 244.8L929.17 244.62L928.45 244.45L927.79 244.31L927.19 244.19L927.04 244.17L926.88 244.14L926.7 244.11L926.51 244.08L926.3 244.04L926.09 244L925.85 243.96L925.61 243.91L925.35 243.86L925.09 243.81L924.81 243.75L924.52 243.7L924.22 243.64L923.91 243.57L923.59 243.51L923.26 243.44L922.93 243.37L922.58 243.3L922.23 243.23L921.87 243.15L921.51 243.08L921.14 243L920.76 242.92L920.37 242.84L919.99 242.76L919.59 242.68L919.2 242.6L918.8 242.52L918.39 242.43L917.99 242.35L917.58 242.27L917.17 242.18L916.75 242.1L916.34 242.02L915.93 241.93L915.51 241.85L915.1 241.77L914.68 241.68L914.27 241.6L913.86 241.52L912.42 241.22L910.96 240.93L909.48 240.64L907.98 240.35L906.46 240.07L904.92 239.79L903.36 239.51L901.79 239.24L900.19 238.97L898.58 238.7L896.94 238.44L895.29 238.18L893.62 237.93L891.94 237.68L890.23 237.43L888.51 237.19L886.77 236.95L885.02 236.72L883.24 236.48L881.46 236.26L879.65 236.03L877.83 235.82L875.99 235.6L874.14 235.39L872.27 235.18L870.39 234.98L868.49 234.78L866.58 234.59L864.65 234.4L862.71 234.21L860.76 234.03L858.79 233.85L856.8 233.68L854.81 233.51L852.8 233.35L850.77 233.19L848.74 233.03L846.69 232.88L844.63 232.73L842.55 232.59L839.43 232.4L836.31 232.23L833.2 232.07L830.09 231.92L826.98 231.8L823.88 231.69L820.78 231.6L817.68 231.52L814.59 231.46L811.49 231.42L808.4 231.4L805.3 231.39L802.2 231.4L799.09 231.42Z" id="b3j2hrZmg7"></path></defs><g><g><g><use xlink:href="#b3j2hrZmg7" opacity="1" fill="#64ffda" fill-opacity="1"></use><g><use xlink:href="#b3j2hrZmg7" opacity="1" fill-opacity="0" stroke="#000000" stroke-width="1" stroke-opacity="0"></use></g></g></g></g></svg>